<svg width="512" height="512" viewBox="0 0 512 512" fill="none" xmlns="http://www.w3.org/2000/svg">
<path d="M468 256C468 138.916 373.084 44 256 44C138.916 44 44 138.916 44 256C44 373.084 138.916 468 256 468C373.084 468 468 373.084 468 256Z" fill="#2563EB"/>
<path d="M271.355 163.37C272.807 163.492 274.244 163.781 275.397 164.702C282.675 170.517 290.018 177.119 297.041 183.24C311.67 195.893 326.169 208.696 340.54 221.647C329.596 204.626 331.627 208.202 331.813 187.175L360.258 187.203L360.27 238.499C365.562 243.631 372.18 249.064 377.747 254.012C389.755 264.685 402.053 275.114 414 285.866C404.068 285.817 394.136 285.83 384.204 285.904C384.022 300.684 384.16 315.753 384.147 330.556C354.096 338.35 327.084 342.1 295.94 342.129C292.162 342.133 282.942 342.578 279.73 341.809L279.317 341.026C279.754 336.662 282.638 335.302 286.623 334.574C314.202 329.535 341.854 323.489 369.498 318.865V275.821C366.132 273.009 361.439 269.664 357.863 266.949C354.602 264.571 351.256 261.992 348.077 259.504C322.917 239.835 296.669 221.106 271.792 201.128C244.363 222.257 216.807 243.215 189.121 264.002L189.114 297.218C176.873 297.174 162.533 297.989 150.371 299.44C133.291 301.48 125.312 303.196 108.065 301.424C124.638 289.778 140.621 277.314 155.956 264.079C179.843 243.674 203.46 222.953 226.798 201.921C240.323 189.764 253.914 177.478 267.589 165.473C268.818 164.392 269.822 163.905 271.355 163.37Z" fill="white"/>
<path d="M180.33 309.141C188.877 307.996 201.437 309.692 209.732 311.539C215.813 312.923 221.829 314.578 227.762 316.499C235.358 318.964 266.609 330.39 270.991 335.155C271.84 336.08 271.998 337.468 271.848 338.673C271.695 339.931 270.914 340.992 269.882 341.695C262.932 346.446 219.477 335.82 209.516 333.524C248.21 355.948 304.505 353.478 347.72 347.286C341.162 350.454 328.682 354.156 321.585 355.817C315.748 357.54 306.892 359.258 300.872 360.199C277.46 363.86 254.569 365.276 230.949 362.655C212.959 360.659 200.147 356.35 183.172 351.24C162.087 344.894 141.575 338.295 121.83 328.319C112.985 323.85 105.951 318.937 98 313.211C111.113 316.615 125.641 322.579 139.286 323.979C146.41 324.711 155.148 316.62 161.985 313.793C168.976 310.904 172.71 309.812 180.33 309.141Z" fill="white"/>
<path d="M226.994 184.852L227.171 184.929C226.904 186.255 164.014 241.248 158.153 246.155C156.898 243.582 155.638 240.665 154.437 238.039L144.808 217.571C155.275 212.368 169.392 206.905 180.406 202.643L226.994 184.852Z" fill="white"/>
<path d="M237.445 148C241.965 151.794 249.072 157.682 253.158 161.678C240.057 166.41 227.02 171.326 214.056 176.424C186.501 186.463 153.48 199.447 127.616 212.49C134.088 226.89 140.66 241.244 147.331 255.553L134.477 266.521C125.598 247.367 115.941 228.583 105.531 210.217C131.352 197.082 157.439 184.476 183.774 172.406C185.284 171.641 187.061 170.78 188.912 169.917C190.764 169.054 192.69 168.19 194.498 167.415C195.402 167.028 196.276 166.663 197.097 166.332C197.37 166.222 197.638 166.116 197.898 166.014C198.7 165.396 200.502 164.758 201.51 164.351C204.673 162.418 210.9 159.81 214.494 158.21L237.445 148Z" fill="white"/>
<path d="M275.583 247.854L298.829 247.762L298.792 270.979L275.603 270.961L275.583 247.854Z" fill="white"/>
<path d="M275.635 277.426L298.829 277.379V300.534L275.603 300.504L275.635 277.426Z" fill="white"/>
<path d="M245.143 277.404L268.199 277.441C268.458 284.936 268.317 292.959 268.296 300.5C260.618 300.589 252.781 300.511 245.087 300.516C245.002 292.812 245.018 285.107 245.143 277.404Z" fill="white"/>
<path d="M245.103 247.868L268.284 247.839C268.365 255.519 268.3 263.267 268.284 270.952L245.062 270.998C245.022 263.288 245.038 255.578 245.103 247.868Z" fill="white"/>
</svg>
