<svg width="1962" height="400" viewBox="0 0 1962 400" fill="none" xmlns="http://www.w3.org/2000/svg">
<path d="M320.926 28.4624C323.615 28.6894 326.274 29.2236 328.408 30.9303C341.882 41.6984 355.475 53.9246 368.477 65.2599C395.559 88.6917 422.402 112.401 449.005 136.384C428.746 104.862 432.505 111.485 432.85 72.5466L485.509 72.599L485.531 167.59C495.328 177.095 507.581 187.155 517.886 196.319C540.115 216.084 562.883 235.397 585 255.307C566.613 255.218 548.226 255.242 529.84 255.379C529.503 282.748 529.757 310.654 529.735 338.066C474.102 352.499 424.095 359.445 366.44 359.498C359.445 359.505 342.376 360.329 336.429 358.905L335.665 357.456C336.474 349.374 341.814 346.856 349.192 345.508C400.248 336.176 451.439 324.979 502.615 316.417V236.706C496.384 231.498 487.696 225.304 481.075 220.275C475.038 215.873 468.845 211.096 462.958 206.489C416.38 170.064 367.788 135.382 321.735 98.3856C270.956 137.512 219.943 176.324 168.688 214.818L168.677 276.33C146.015 276.248 119.467 277.757 96.9531 280.445C65.3322 284.222 50.5613 287.4 18.6326 284.119C49.3135 262.552 78.9033 239.471 107.291 214.962C151.514 177.175 195.234 138.802 238.44 99.854C263.477 77.3407 288.638 54.5898 313.953 32.3582C316.23 30.3564 318.087 29.4536 320.926 28.4624Z" fill="black" fill-opacity="0.8"/>
<path d="M152.414 298.41C168.238 296.289 191.489 299.429 206.845 302.849C218.103 305.413 229.24 308.477 240.224 312.034C254.285 316.599 312.141 337.759 320.252 346.584C321.825 348.295 322.117 350.867 321.84 353.099C321.555 355.428 320.11 357.391 318.2 358.694C305.333 367.493 224.886 347.815 206.447 343.564C278.078 385.089 382.295 380.515 462.299 369.048C450.158 374.915 427.053 381.771 413.916 384.846C403.109 388.037 386.714 391.219 375.57 392.962C332.228 399.74 289.852 402.362 246.125 397.509C212.819 393.812 189.101 385.832 157.677 376.371C118.641 364.617 80.6685 352.397 44.1149 333.924C27.7413 325.649 14.72 316.549 0 305.946C24.2759 312.25 51.1716 323.294 76.4317 325.887C89.6193 327.242 105.797 312.258 118.453 307.024C131.395 301.673 138.307 299.652 152.414 298.41Z" fill="black" fill-opacity="0.8"/>
<path d="M238.803 68.2446L239.129 68.3862C238.636 70.8436 122.209 172.681 111.36 181.769C109.037 177.003 106.703 171.602 104.479 166.739L86.6541 128.835C106.031 119.2 132.166 109.083 152.556 101.191L238.803 68.2446Z" fill="#2563EB"/>
<path d="M158.792 45.1963C166.244 41.4151 177.215 36.3875 184.938 33.3594C186.422 32.2154 189.757 31.0337 191.624 30.2793L192.189 29.9404C198.196 26.4012 209.216 21.7787 215.662 18.9082L258.15 0C266.517 7.02595 279.674 17.9293 287.238 25.3291C262.983 34.0932 238.85 43.1971 214.849 52.6377C163.838 71.2289 102.708 95.272 54.8269 119.427C66.8079 146.093 78.9737 172.675 91.324 199.172L67.5281 219.481C51.0908 184.012 33.2135 149.228 13.9421 115.217C61.7435 90.8927 110.038 67.5488 158.792 45.1973V45.1963Z" fill="#2563EB"/>
<path d="M328.752 184.914L371.787 184.744L371.72 227.739L328.79 227.706L328.752 184.914Z" fill="black" fill-opacity="0.8"/>
<path d="M328.85 239.678L371.787 239.59V282.47L328.79 282.416L328.85 239.678Z" fill="black" fill-opacity="0.8"/>
<path d="M272.401 239.637L315.084 239.706C315.563 253.585 315.301 268.442 315.264 282.407C301.049 282.572 286.541 282.429 272.296 282.437C272.139 268.171 272.169 253.902 272.401 239.637Z" fill="#2563EB"/>
<path d="M272.326 184.941L315.241 184.887C315.391 199.109 315.271 213.457 315.241 227.69L272.251 227.775C272.176 213.496 272.206 199.218 272.326 184.941Z" fill="black" fill-opacity="0.8"/>
<path d="M705.613 252L667.533 153.16H691.053L720.033 233.1H710.373L739.773 153.16H763.013L724.513 252H705.613ZM807.486 215.18L769.406 153.16H794.886L824.146 203.28H807.766L837.026 153.16H861.946L823.586 215.18H807.486ZM804.826 252V205.1H826.806V252H804.826ZM805.666 145.46L798.666 135.24L820.926 114.38L832.686 130.9L805.666 145.46ZM936.581 252L896.541 200.48L935.321 153.16H962.481L918.801 204.54V195.58L963.881 252H936.581ZM876.801 252V153.16H898.781V252H876.801ZM1017.76 253.54C1009.64 253.54 1002.45 251.813 996.2 248.36C990.04 244.907 985.187 240.147 981.64 234.08C978.187 227.92 976.46 220.92 976.46 213.08V153.16H998.58V214.34C998.58 218.26 999.42 221.667 1001.1 224.56C1002.78 227.453 1005.07 229.693 1007.96 231.28C1010.95 232.773 1014.21 233.52 1017.76 233.52C1021.49 233.52 1024.76 232.773 1027.56 231.28C1030.36 229.693 1032.55 227.5 1034.14 224.7C1035.82 221.807 1036.66 218.4 1036.66 214.48V153.16H1058.78V213.22C1058.78 221.06 1057.05 228.013 1053.6 234.08C1050.15 240.147 1045.34 244.907 1039.18 248.36C1033.02 251.813 1025.88 253.54 1017.76 253.54ZM1100.1 216.02V198.94H1121.38C1124.09 198.94 1126.56 198.38 1128.8 197.26C1131.04 196.14 1132.81 194.507 1134.12 192.36C1135.43 190.213 1136.08 187.6 1136.08 184.52C1136.08 181.533 1135.43 178.967 1134.12 176.82C1132.81 174.673 1131.04 173.04 1128.8 171.92C1126.56 170.8 1124.09 170.24 1121.38 170.24H1100.1V153.16H1124.6C1130.85 153.16 1136.5 154.42 1141.54 156.94C1146.58 159.46 1150.55 163.1 1153.44 167.86C1156.43 172.527 1157.92 178.08 1157.92 184.52C1157.92 190.96 1156.43 196.56 1153.44 201.32C1150.55 205.987 1146.58 209.627 1141.54 212.24C1136.5 214.76 1130.85 216.02 1124.6 216.02H1100.1ZM1083.3 252V153.16H1105.28V252H1083.3ZM1224.25 252V232.68H1248.75C1254.72 232.68 1259.95 231.513 1264.43 229.18C1268.91 226.753 1272.36 223.253 1274.79 218.68C1277.22 214.107 1278.43 208.693 1278.43 202.44C1278.43 196.187 1277.17 190.82 1274.65 186.34C1272.22 181.86 1268.77 178.407 1264.29 175.98C1259.9 173.553 1254.72 172.34 1248.75 172.34H1223.55V153.16H1249.03C1256.5 153.16 1263.36 154.373 1269.61 156.8C1275.96 159.133 1281.46 162.54 1286.13 167.02C1290.89 171.407 1294.53 176.633 1297.05 182.7C1299.66 188.673 1300.97 195.3 1300.97 202.58C1300.97 209.767 1299.66 216.393 1297.05 222.46C1294.53 228.527 1290.94 233.753 1286.27 238.14C1281.6 242.527 1276.1 245.933 1269.75 248.36C1263.5 250.787 1256.68 252 1249.31 252H1224.25ZM1209.41 252V153.16H1231.39V252H1209.41ZM1369.14 253.68C1361.67 253.68 1354.76 252.373 1348.42 249.76C1342.16 247.147 1336.66 243.507 1331.9 238.84C1327.14 234.173 1323.45 228.76 1320.84 222.6C1318.22 216.347 1316.92 209.627 1316.92 202.44C1316.92 195.16 1318.22 188.44 1320.84 182.28C1323.45 176.12 1327.09 170.753 1331.76 166.18C1336.42 161.513 1341.88 157.92 1348.14 155.4C1354.48 152.787 1361.39 151.48 1368.86 151.48C1376.23 151.48 1383.04 152.787 1389.3 155.4C1395.64 157.92 1401.15 161.513 1405.82 166.18C1410.58 170.753 1414.26 176.167 1416.88 182.42C1419.49 188.58 1420.8 195.3 1420.8 202.58C1420.8 209.767 1419.49 216.487 1416.88 222.74C1414.26 228.9 1410.62 234.313 1405.96 238.98C1401.29 243.553 1395.78 247.147 1389.44 249.76C1383.18 252.373 1376.42 253.68 1369.14 253.68ZM1368.86 233.66C1374.74 233.66 1379.87 232.353 1384.26 229.74C1388.74 227.127 1392.19 223.487 1394.62 218.82C1397.04 214.06 1398.26 208.6 1398.26 202.44C1398.26 197.773 1397.56 193.573 1396.16 189.84C1394.76 186.013 1392.75 182.747 1390.14 180.04C1387.52 177.24 1384.4 175.14 1380.76 173.74C1377.21 172.247 1373.24 171.5 1368.86 171.5C1362.98 171.5 1357.8 172.807 1353.32 175.42C1348.93 177.94 1345.52 181.533 1343.1 186.2C1340.67 190.773 1339.46 196.187 1339.46 202.44C1339.46 207.107 1340.16 211.353 1341.56 215.18C1342.96 219.007 1344.92 222.32 1347.44 225.12C1350.05 227.827 1353.18 229.927 1356.82 231.42C1360.46 232.913 1364.47 233.66 1368.86 233.66ZM1441.75 252V153.16H1457.43L1496.35 213.78H1488.37L1527.15 153.16H1542.97V252H1520.99V190.26L1524.91 191.24L1499.57 230.72H1485.01L1459.81 191.24L1463.59 190.26V252H1441.75ZM1608.69 253.54C1600.57 253.54 1593.38 251.813 1587.13 248.36C1580.97 244.907 1576.11 240.147 1572.57 234.08C1569.11 227.92 1567.39 220.92 1567.39 213.08V153.16H1589.51V214.34C1589.51 218.26 1590.35 221.667 1592.03 224.56C1593.71 227.453 1595.99 229.693 1598.89 231.28C1601.87 232.773 1605.14 233.52 1608.69 233.52C1612.42 233.52 1615.69 232.773 1618.49 231.28C1621.29 229.693 1623.48 227.5 1625.07 224.7C1626.75 221.807 1627.59 218.4 1627.59 214.48V153.16H1649.71V213.22C1649.71 221.06 1647.98 228.013 1644.53 234.08C1641.07 240.147 1636.27 244.907 1630.11 248.36C1623.95 251.813 1616.81 253.54 1608.69 253.54ZM1608.69 146.58C1605.14 146.58 1601.97 145.787 1599.17 144.2C1596.46 142.613 1594.27 140.467 1592.59 137.76C1591 135.053 1590.21 131.973 1590.21 128.52C1590.21 125.067 1591 121.987 1592.59 119.28C1594.27 116.573 1596.46 114.427 1599.17 112.84C1601.97 111.16 1605.14 110.32 1608.69 110.32C1612.14 110.32 1615.22 111.16 1617.93 112.84C1620.73 114.427 1622.92 116.573 1624.51 119.28C1626.09 121.987 1626.89 125.067 1626.89 128.52C1626.89 131.973 1626.09 135.053 1624.51 137.76C1622.92 140.467 1620.73 142.613 1617.93 144.2C1615.22 145.787 1612.14 146.58 1608.69 146.58ZM1608.69 134.82C1610.37 134.82 1611.77 134.213 1612.89 133C1614.1 131.787 1614.71 130.293 1614.71 128.52C1614.71 126.653 1614.1 125.16 1612.89 124.04C1611.77 122.827 1610.37 122.22 1608.69 122.22C1606.82 122.22 1605.33 122.827 1604.21 124.04C1603.09 125.253 1602.53 126.747 1602.53 128.52C1602.53 130.293 1603.09 131.787 1604.21 133C1605.33 134.213 1606.82 134.82 1608.69 134.82Z" fill="black" fill-opacity="0.8"/>
<rect x="1714" y="76" width="248" height="248" rx="124" fill="#2563EB"/>
<path d="M1795.86 153.978C1802.11 153.978 1807.5 155.133 1812.04 157.443C1816.66 159.754 1820.21 163.049 1822.69 167.328C1825.26 171.607 1826.55 176.615 1826.55 182.349C1826.55 185.943 1826.07 189.28 1825.13 192.361C1824.19 195.357 1822.65 198.352 1820.51 201.348C1818.46 204.257 1815.68 207.468 1812.17 210.977L1794.23 228.82H1828.34V246.022H1763.13V234.726L1797.92 198.78C1800.06 196.641 1801.77 194.672 1803.05 192.875C1804.34 191.078 1805.28 189.409 1805.88 187.868C1806.48 186.242 1806.77 184.616 1806.77 182.99C1806.77 179.591 1805.69 176.914 1803.52 174.961L1802.88 174.401C1800.71 172.596 1797.9 171.693 1794.45 171.693C1790.86 171.693 1787.6 172.677 1784.69 174.646C1781.87 176.528 1779.13 179.653 1776.48 184.018L1763 172.335C1766.59 166.259 1771.17 161.68 1776.73 158.599C1782.3 155.518 1788.67 153.978 1795.86 153.978ZM1864.62 208.794H1883.09V189.923H1902.86V208.794H1913V225.868H1902.86V246.022H1883.09V225.868H1840.34V214.57L1870.12 155.39H1892.07L1864.62 208.794Z" fill="white"/>
</svg>
