<svg width="585" height="400" viewBox="0 0 585 400" fill="none" xmlns="http://www.w3.org/2000/svg">
<path d="M320.926 28.4624C323.615 28.6894 326.274 29.2236 328.408 30.9303C341.882 41.6984 355.475 53.9246 368.477 65.2599C395.559 88.6917 422.402 112.401 449.005 136.384C428.746 104.862 432.505 111.485 432.85 72.5466L485.509 72.599L485.531 167.59C495.328 177.095 507.581 187.155 517.886 196.319C540.115 216.084 562.883 235.397 585 255.307C566.613 255.218 548.226 255.242 529.84 255.379C529.503 282.748 529.757 310.654 529.735 338.066C474.102 352.499 424.095 359.445 366.44 359.498C359.445 359.505 342.376 360.329 336.429 358.905L335.665 357.456C336.474 349.374 341.814 346.856 349.192 345.508C400.248 336.176 451.439 324.979 502.615 316.417V236.706C496.384 231.498 487.696 225.304 481.075 220.275C475.038 215.873 468.845 211.096 462.958 206.489C416.38 170.064 367.788 135.382 321.735 98.3856C270.956 137.512 219.943 176.324 168.688 214.818L168.677 276.33C146.015 276.248 119.467 277.757 96.9531 280.445C65.3322 284.222 50.5613 287.4 18.6326 284.119C49.3135 262.552 78.9033 239.471 107.291 214.962C151.514 177.175 195.234 138.802 238.44 99.854C263.477 77.3407 288.638 54.5898 313.953 32.3582C316.23 30.3564 318.087 29.4536 320.926 28.4624Z" fill="black" fill-opacity="0.8"/>
<path d="M152.414 298.41C168.238 296.289 191.489 299.429 206.845 302.849C218.103 305.413 229.24 308.477 240.224 312.034C254.285 316.599 312.141 337.759 320.252 346.584C321.825 348.295 322.117 350.867 321.84 353.099C321.555 355.428 320.11 357.391 318.2 358.694C305.333 367.493 224.886 347.815 206.447 343.564C278.078 385.089 382.295 380.515 462.299 369.048C450.158 374.915 427.053 381.771 413.916 384.846C403.109 388.037 386.714 391.219 375.57 392.962C332.228 399.74 289.852 402.362 246.125 397.509C212.819 393.812 189.101 385.832 157.677 376.371C118.641 364.617 80.6685 352.397 44.1149 333.924C27.7413 325.649 14.72 316.549 0 305.946C24.2759 312.25 51.1716 323.294 76.4317 325.887C89.6193 327.242 105.797 312.258 118.453 307.024C131.395 301.673 138.307 299.652 152.414 298.41Z" fill="black" fill-opacity="0.8"/>
<path d="M238.803 68.2446L239.129 68.3862C238.636 70.8436 122.209 172.681 111.36 181.769C109.037 177.003 106.703 171.602 104.479 166.739L86.6541 128.835C106.031 119.2 132.166 109.083 152.556 101.191L238.803 68.2446Z" fill="#2563EB"/>
<path d="M158.792 45.1963C166.244 41.4151 177.215 36.3875 184.938 33.3594C186.422 32.2154 189.757 31.0337 191.624 30.2793L192.189 29.9404C198.196 26.4012 209.216 21.7787 215.662 18.9082L258.15 0C266.517 7.02595 279.674 17.9293 287.238 25.3291C262.983 34.0932 238.85 43.1971 214.849 52.6377C163.838 71.2289 102.708 95.272 54.8269 119.427C66.8079 146.093 78.9737 172.675 91.324 199.172L67.5281 219.481C51.0908 184.012 33.2135 149.228 13.9421 115.217C61.7435 90.8927 110.038 67.5488 158.792 45.1973V45.1963Z" fill="#2563EB"/>
<path d="M328.752 184.914L371.787 184.744L371.72 227.739L328.79 227.706L328.752 184.914Z" fill="black" fill-opacity="0.8"/>
<path d="M328.85 239.678L371.787 239.59V282.47L328.79 282.416L328.85 239.678Z" fill="black" fill-opacity="0.8"/>
<path d="M272.401 239.637L315.084 239.706C315.563 253.585 315.301 268.442 315.264 282.407C301.049 282.572 286.541 282.429 272.296 282.437C272.139 268.171 272.169 253.902 272.401 239.637Z" fill="#2563EB"/>
<path d="M272.326 184.941L315.241 184.887C315.391 199.109 315.271 213.457 315.241 227.69L272.251 227.775C272.176 213.496 272.206 199.218 272.326 184.941Z" fill="black" fill-opacity="0.8"/>
</svg>
